<?xml version="1.0" encoding="UTF-8" standalone="no"?>
<!-- Created with Inkscape (http://www.inkscape.org/) -->

<svg
   xmlns:dc="http://purl.org/dc/elements/1.1/"
   xmlns:cc="http://creativecommons.org/ns#"
   xmlns:rdf="http://www.w3.org/1999/02/22-rdf-syntax-ns#"
   xmlns:svg="http://www.w3.org/2000/svg"
   xmlns="http://www.w3.org/2000/svg"
   xmlns:sodipodi="http://sodipodi.sourceforge.net/DTD/sodipodi-0.dtd"
   xmlns:inkscape="http://www.inkscape.org/namespaces/inkscape"
   width="187.66142"
   height="187.66142"
   viewBox="0 0 187.66141 187.6614"
   id="svg3430"
   version="1.1"
   inkscape:version="0.91 r13725"
   sodipodi:docname="logo-been-02.svg">
  <defs
     id="defs3432" />
  <sodipodi:namedview
     id="base"
     pagecolor="#ffffff"
     bordercolor="#666666"
     borderopacity="1.0"
     inkscape:pageopacity="0.0"
     inkscape:pageshadow="2"
     inkscape:zoom="1.979899"
     inkscape:cx="65.841361"
     inkscape:cy="128.76325"
     inkscape:document-units="px"
     inkscape:current-layer="layer1"
     showgrid="false"
     inkscape:window-width="1366"
     inkscape:window-height="715"
     inkscape:window-x="0"
     inkscape:window-y="0"
     inkscape:window-maximized="1"
     units="px"
     showborder="true" />
  <metadata
     id="metadata3435">
    <rdf:RDF>
      <cc:Work
         rdf:about="">
        <dc:format>image/svg+xml</dc:format>
        <dc:type
           rdf:resource="http://purl.org/dc/dcmitype/StillImage" />
        <dc:title></dc:title>
      </cc:Work>
    </rdf:RDF>
  </metadata>
  <g
     inkscape:label="Capa 1"
     inkscape:groupmode="layer"
     id="layer1"
     transform="translate(0,-864.70378)">
    <path
       style="fill:#000000"
       d="m 38.780695,1048.4664 c -23.63589,-5.8662 -37.81246031,-29.8095 -36.1701803,-61.08897 2.26699,-43.17806 33.3987803,-85.65127 69.6701803,-95.05127 5.27075,-1.36596 9.05305,-1.56464 20,-1.05061 7.424999,0.34865 16.309115,1.29569 19.742495,2.10454 34.78974,8.19588 66.88694,47.27948 72.32611,88.06891 2.26634,16.99572 -0.88354,35.2314 -8.00159,46.3239 -3.90279,6.082 -11.45395,13.2409 -16.8935,16.016 -5.00906,2.5554 -15.24876,5.0599 -20.67352,5.0564 -9.53481,-0.01 -24.20107,-4.5719 -34.06024,-10.6032 -12.338735,-7.5482 -10.255875,-7.3106 -17.674295,-2.0169 -15.85799,11.316 -33.72986,15.8487 -48.26546,12.2412 z m 26.82096,-7.0383 c 7.33396,-2.5881 19.14009,-9.1811 21.84331,-12.1981 1.57263,-1.7552 1.29213,-2.2731 -5.33627,-9.8526 -12.46052,-14.2484 -22.08611,-32.17912 -26.39681,-49.17238 -2.99774,-11.81746 -3.40991,-31.76191 -0.85975,-41.60328 3.10846,-11.99596 9.83635,-22.30264 18.92856,-28.99732 l 4,-2.94524 -3.5,0.72414 c -20.95134,4.33478 -44.61162,26.0569 -56.5674,51.93362 -6.30398,13.64414 -8.6217403,23.52628 -9.1744903,39.11691 -0.42842,12.08375 -0.20258,15.22605 1.6092003,22.39065 4.04217,15.9846 13.81308,27.6599 26.45686,31.6134 7.18987,2.2481 21.14162,1.7623 28.99679,-1.0098 z m 85.311825,-0.034 c 19.70157,-5.8507 31.4528,-29.2782 28.36379,-56.54651 -2.68565,-23.70777 -13.01649,-45.09111 -30.34316,-62.80593 -9.11839,-9.32267 -16.90286,-15.05317 -26.01622,-19.15173 -11.14541,-5.01243 -11.66011,-4.94377 -6.44252,0.85944 6.0368,6.71438 9.11659,12.08914 12.45618,21.73822 2.51271,7.25993 2.72768,9.08826 2.69143,22.89015 -0.0477,18.15254 -2.46179,28.7929 -10.21508,45.02371 -5.56657,11.65305 -8.85729,16.82465 -17.24742,27.10515 l -5.818015,7.129 5.270555,3.4994 c 12.55247,8.3344 22.02493,11.5636 34.23617,11.6715 4.44061,0.039 10.31479,-0.5959 13.06429,-1.4124 z m -47.12086,-29.0164 c 5.15571,-6.752 11.76458,-17.58989 13.56789,-22.24997 l 0.87068,-2.25 -25.570705,0 -25.57071,0 3.21758,5.75 c 4.61397,8.24537 11.20367,17.30467 17.66023,24.27847 l 5.60095,6.0497 2.43951,-2.2891 c 1.34174,-1.259 4.844785,-5.4391 7.784575,-9.2891 z m 6.6165,-33.49691 11.62842,-0.003 1.62158,-6.45552 c 0.89186,-3.55059 1.62157,-7.15059 1.62157,-8.00006 0,-1.3605 -3.81568,-1.54448 -32.031385,-1.54448 -27.72283,0 -32.10976,0.20425 -32.61406,1.51845 -0.58474,1.52379 0.73014,7.9439 2.67414,13.05701 l 1.0405,2.73673 17.21541,-0.65304 c 9.46847,-0.35917 22.448185,-0.65441 28.843825,-0.65609 z m 16.87157,-28.36349 c 0,-1.84824 -0.28617,-5.44824 -0.63592,-8 l -0.63593,-4.63957 -33.864065,0 -33.86408,0 0,8 0,8 34.5,0 34.499995,0 0,-3.36043 z m -5.0864,-28.38957 c -3.23528,-8.58047 -11.75887,-18.08977 -19.9689,-22.27821 -12.562115,-6.40872 -32.068705,4.5331 -39.716605,22.27821 l -1.18521,2.75 30.95381,0 30.953805,0 -1.0369,-2.75 z M 77.780695,888.71675 c -5.62154,-3.09147 -7.37097,-11.19106 -3.48436,-16.13207 6.38482,-8.11699 18.98436,-3.78475 18.98436,6.52761 0,7.69649 -8.91942,13.22334 -15.5,9.60446 z m 24.899995,-2.23932 c -3.851425,-3.85143 -4.411935,-7.74244 -1.83358,-12.72844 1.88817,-3.65132 7.46126,-6.24403 11.51014,-5.35475 4.38765,0.96369 7.92786,5.80718 7.9012,10.80991 -0.0525,9.85519 -10.62231,14.22873 -17.57776,7.27328 z"
       id="path3564"
       inkscape:connector-curvature="0"
       inkscape:export-xdpi="89.699997"
       inkscape:export-ydpi="89.699997" />
  </g>
</svg>
